<svg xmlns="http://www.w3.org/2000/svg" width="100" height="100" viewBox="0 0 100 100" fill="none">
  <rect width="100" height="100" rx="22" fill="#21D46E"/>
  <g transform="translate(21 21) scale(0.58)">
    <circle cx="50" cy="50" r="44" stroke="#FFFFFF" stroke-width="6"/>
    <rect x="49" y="6" width="2" height="7" rx="1" fill="#FFFFFF" transform="rotate(0 50 50)"/>
    <rect x="49" y="6" width="2" height="7" rx="1" fill="#FFFFFF" transform="rotate(90 50 50)"/>
    <rect x="49" y="6" width="2" height="7" rx="1" fill="#FFFFFF" transform="rotate(180 50 50)"/>
    <rect x="49" y="6" width="2" height="7" rx="1" fill="#FFFFFF" transform="rotate(270 50 50)"/>
    <g transform="rotate(24 50 50)">
      <path d="M50 20 L57 50 L43 50 Z" fill="#FFFFFF"/>
      <path d="M50 80 L57 50 L43 50 Z" fill="#0F4B42" fill-opacity="0.92"/>
    </g>
    <circle cx="50" cy="50" r="5.5" fill="#21D46E" stroke="#FFFFFF" stroke-width="2.5"/>
  </g>
</svg>
